<?xml version="1.0" encoding="UTF-8" standalone="no"?>
<!DOCTYPE svg PUBLIC "-//W3C//DTD SVG 1.1//EN" "http://www.w3.org/Graphics/SVG/1.1/DTD/svg11.dtd">
<svg version="1.1" xmlns="http://www.w3.org/2000/svg" xmlns:xlink="http://www.w3.org/1999/xlink" preserveAspectRatio="xMidYMid meet" viewBox="0 0 640 640" width="48" height="48"><defs><path d="M462.45 290.5C462.45 369.12 398.62 432.95 320 432.95C241.38 432.95 177.55 369.12 177.55 290.5C177.55 211.89 241.38 148.06 320 148.06C398.62 148.06 462.45 211.89 462.45 290.5Z" id="c8rEjdHaeB"></path><linearGradient id="gradienta4wnsJ2dM" gradientUnits="userSpaceOnUse" x1="320" y1="148.06" x2="320" y2="432.95"><stop style="stop-color: #000000;stop-opacity: 1" offset="0%"></stop><stop style="stop-color: #393939;stop-opacity: 1" offset="30.050505050505055%"></stop><stop style="stop-color: #000000;stop-opacity: 1" offset="100%"></stop></linearGradient><path d="M417.51 292.66C417.51 346.48 373.82 390.17 320 390.17C266.18 390.17 222.49 346.48 222.49 292.66C222.49 238.84 266.18 195.15 320 195.15C373.82 195.15 417.51 238.84 417.51 292.66Z" id="a20VzBnQg"></path><linearGradient id="gradiente5r1sKCq8" gradientUnits="userSpaceOnUse" x1="320" y1="195.15" x2="320" y2="390.17"><stop style="stop-color: #000000;stop-opacity: 1" offset="0%"></stop><stop style="stop-color: #383838;stop-opacity: 1" offset="27.003338048267665%"></stop><stop style="stop-color: #010000;stop-opacity: 1" offset="100%"></stop></linearGradient><path d="M300.57 263.07C300.57 271.6 293.64 278.53 285.11 278.53C276.57 278.53 269.64 271.6 269.64 263.07C269.64 254.53 276.57 247.6 285.11 247.6C293.64 247.6 300.57 254.53 300.57 263.07Z" id="b2xl5zDqW"></path><path d="M368.85 261.73C368.85 270.26 361.92 277.19 353.38 277.19C344.84 277.19 337.91 270.26 337.91 261.73C337.91 253.19 344.84 246.26 353.38 246.26C361.92 246.26 368.85 253.19 368.85 261.73Z" id="cbMoeafV2"></path><path d="M303.46 320C303.46 328.54 296.53 335.47 287.99 335.47C279.46 335.47 272.53 328.54 272.53 320C272.53 311.46 279.46 304.53 287.99 304.53C296.53 304.53 303.46 311.46 303.46 320Z" id="d4Q1USZiZ"></path><path d="M368.85 320C368.85 328.54 361.92 335.47 353.38 335.47C344.84 335.47 337.91 328.54 337.91 320C337.91 311.46 344.84 304.53 353.38 304.53C361.92 304.53 368.85 311.46 368.85 320Z" id="a1uZL3hbmj"></path></defs><g><g><g><use xlink:href="#c8rEjdHaeB" opacity="1" fill="url(#gradienta4wnsJ2dM)"></use><g><use xlink:href="#c8rEjdHaeB" opacity="1" fill-opacity="0" stroke="#ffffff" stroke-width="2" stroke-opacity="1"></use></g></g><g><use xlink:href="#a20VzBnQg" opacity="1" fill="url(#gradiente5r1sKCq8)"></use><g><use xlink:href="#a20VzBnQg" opacity="1" fill-opacity="0" stroke="#ffffff" stroke-width="9" stroke-opacity="1"></use></g></g><g><use xlink:href="#b2xl5zDqW" opacity="1" fill="#ffffff" fill-opacity="1"></use><g><use xlink:href="#b2xl5zDqW" opacity="1" fill-opacity="0" stroke="#000000" stroke-width="2" stroke-opacity="1"></use></g></g><g><use xlink:href="#cbMoeafV2" opacity="1" fill="#ffffff" fill-opacity="1"></use><g><use xlink:href="#cbMoeafV2" opacity="1" fill-opacity="0" stroke="#000000" stroke-width="2" stroke-opacity="1"></use></g></g><g><use xlink:href="#d4Q1USZiZ" opacity="1" fill="#ffffff" fill-opacity="1"></use><g><use xlink:href="#d4Q1USZiZ" opacity="1" fill-opacity="0" stroke="#000000" stroke-width="2" stroke-opacity="1"></use></g></g><g><use xlink:href="#a1uZL3hbmj" opacity="1" fill="#ffffff" fill-opacity="1"></use><g><use xlink:href="#a1uZL3hbmj" opacity="1" fill-opacity="0" stroke="#000000" stroke-width="2" stroke-opacity="1"></use></g></g></g></g></svg>