<?xml version="1.0" standalone="no"?>
<!DOCTYPE svg PUBLIC "-//W3C//DTD SVG 20010904//EN"
 "http://www.w3.org/TR/2001/REC-SVG-20010904/DTD/svg10.dtd">
<svg version="1.0" xmlns="http://www.w3.org/2000/svg"
 width="452.000000pt" height="452.000000pt" viewBox="0 0 452.000000 452.000000"
 preserveAspectRatio="xMidYMid meet">

<g transform="translate(0.000000,452.000000) scale(0.100000,-0.100000)"
fill="#000000" stroke="none">
<path d="M2890 4296 c0 -113 -2 -206 -5 -206 -3 0 -163 90 -355 200 -192 110
-352 200 -355 200 -3 0 -5 -115 -5 -255 0 -196 -3 -256 -12 -259 -7 -2 -62 -9
-123 -15 -438 -44 -890 -280 -1191 -619 -568 -643 -640 -1576 -177 -2292 290
-447 750 -751 1272 -841 661 -113 1339 134 1768 644 204 244 352 547 413 848
24 122 45 345 36 392 -12 62 -71 93 -129 66 -37 -17 -44 -42 -56 -196 -17
-230 -75 -451 -168 -638 -238 -476 -674 -817 -1185 -925 -376 -79 -783 -28
-1119 140 -468 235 -801 659 -913 1161 -56 252 -56 507 0 757 34 152 62 229
140 387 198 402 557 715 984 858 120 40 269 73 382 83 l78 7 2 -256 3 -256
355 204 355 203 5 -209 5 -208 475 304 c261 167 476 307 477 312 2 7 -919 601
-948 611 -5 2 -9 -81 -9 -202z m-277 -261 c136 -77 247 -143 247 -147 0 -3
-100 -64 -222 -133 -123 -70 -238 -136 -255 -147 l-33 -20 0 297 c0 163 4 295
8 293 5 -1 120 -66 255 -143z m688 -6 c121 -78 219 -143 217 -144 -14 -14
-432 -275 -439 -275 -5 0 -9 113 -9 280 0 154 2 280 6 280 3 0 104 -64 225
-141z"/>
<path d="M1711 2655 c-26 -116 -116 -185 -270 -207 l-81 -12 0 -88 0 -88 180
0 180 0 0 -495 0 -495 90 0 90 0 0 720 0 720 -88 0 -89 0 -12 -55z"/>
<path d="M2280 2698 c0 -7 -22 -156 -49 -331 l-47 -318 45 -23 c104 -51 104
-51 157 -13 72 50 110 62 194 62 62 0 85 -5 132 -28 62 -30 115 -83 150 -149
33 -63 33 -203 0 -270 -30 -60 -90 -120 -150 -150 -62 -30 -172 -36 -239 -14
-102 35 -193 130 -208 217 l-7 39 -90 0 -91 0 7 -52 c10 -78 68 -190 131 -252
97 -95 222 -146 361 -146 276 0 495 216 494 489 -1 144 -46 255 -142 352 -134
134 -318 178 -514 123 l-21 -6 18 119 c10 65 21 133 24 151 l6 32 269 0 270 0
0 90 0 90 -350 0 c-273 0 -350 -3 -350 -12z"/>
</g>
</svg>
