<?xml version="1.0" encoding="UTF-8" standalone="no"?>
<!DOCTYPE svg PUBLIC "-//W3C//DTD SVG 1.1//EN" "http://www.w3.org/Graphics/SVG/1.1/DTD/svg11.dtd">
<svg version="1.1" xmlns="http://www.w3.org/2000/svg" xmlns:xlink="http://www.w3.org/1999/xlink" preserveAspectRatio="xMidYMid meet" viewBox="0 0 640 640" width="48" height="48"><defs><path d="M462.45 290.5C462.45 369.12 398.62 432.95 320 432.95C241.38 432.95 177.55 369.12 177.55 290.5C177.55 211.89 241.38 148.06 320 148.06C398.62 148.06 462.45 211.89 462.45 290.5Z" id="aTn0Wx1YW"></path><path d="M417.51 292.66C417.51 346.48 373.82 390.17 320 390.17C266.18 390.17 222.49 346.48 222.49 292.66C222.49 238.84 266.18 195.15 320 195.15C373.82 195.15 417.51 238.84 417.51 292.66Z" id="aI4ApH1fS"></path><path d="M300.57 292.66C300.57 301.2 293.64 308.13 285.11 308.13C276.57 308.13 269.64 301.2 269.64 292.66C269.64 284.13 276.57 277.19 285.11 277.19C293.64 277.19 300.57 284.13 300.57 292.66Z" id="aQ2XYvbSr"></path><path d="M370.29 292.66C370.29 301.2 363.36 308.13 354.82 308.13C346.29 308.13 339.35 301.2 339.35 292.66C339.35 284.13 346.29 277.19 354.82 277.19C363.36 277.19 370.29 284.13 370.29 292.66Z" id="cc4JpuHQJ"></path></defs><g><g><g><use xlink:href="#aTn0Wx1YW" opacity="1" fill="#ebedcd" fill-opacity="1"></use><g><use xlink:href="#aTn0Wx1YW" opacity="1" fill-opacity="0" stroke="#000000" stroke-width="2" stroke-opacity="1"></use></g></g><g><use xlink:href="#aI4ApH1fS" opacity="1" fill="#f7f9d9" fill-opacity="1"></use><g><use xlink:href="#aI4ApH1fS" opacity="1" fill-opacity="0" stroke="#000000" stroke-width="2" stroke-opacity="1"></use></g></g><g><use xlink:href="#aQ2XYvbSr" opacity="1" fill="#ffffff" fill-opacity="1"></use><g><use xlink:href="#aQ2XYvbSr" opacity="1" fill-opacity="0" stroke="#000000" stroke-width="2" stroke-opacity="1"></use></g></g><g><use xlink:href="#cc4JpuHQJ" opacity="1" fill="#ffffff" fill-opacity="1"></use><g><use xlink:href="#cc4JpuHQJ" opacity="1" fill-opacity="0" stroke="#000000" stroke-width="2" stroke-opacity="1"></use></g></g></g></g></svg>